# xmcd
#
# Track frame offsets: 
#        150
#        13555
#        33023
#        65669
#        82994
#        129411
#        141565
#        152209
#
# Disc length: 2225 seconds
#
# Revision: 0
# Processed by: cddbd v1.5.2PL0 Copyright (c) Steve Scherf et al.
# Submitted via: ExactAudioCopy v0.95b4
#
DISCID=6308af08
DTITLE=Roland and the Blues Workshop - Movin' On
DYEAR=2007
DGENRE=Blues
TTITLE0=Movin' On
TTITLE1=That's All Right
TTITLE2=Rolands Blues
TTITLE3=Jambalaya
TTITLE4=Skat Blues
TTITLE5=Walking' Down The Highway
TTITLE6=Riding In My Car
TTITLE7=Bye Bye Baby
EXTD=
EXTT0=
EXTT1=
EXTT2=
EXTT3=
EXTT4=
EXTT5=
EXTT6=
EXTT7=
PLAYORDER=
